<svg width="24" height="24" viewBox="0 0 24 24" fill="none" xmlns="http://www.w3.org/2000/svg">
<path fill-rule="evenodd" clip-rule="evenodd" d="M6.989 4.89055C10.3247 4.62958 13.6756 4.62958 17.0113 4.89055L19.252 5.06585C20.5001 5.16349 21.5211 6.09889 21.7274 7.33366C22.2436 10.4231 22.2436 13.5769 21.7274 16.6664C21.5211 17.9011 20.5001 18.8365 19.252 18.9342L17.0113 19.1095C13.6756 19.3704 10.3247 19.3704 6.989 19.1095L4.7483 18.9342C3.50023 18.8365 2.47921 17.9011 2.2729 16.6664C1.75669 13.5769 1.75669 10.4231 2.2729 7.33366C2.47921 6.09889 3.50023 5.16349 4.7483 5.06585L6.989 4.89055ZM10.0001 14.4701V9.52989C10.0001 9.2967 10.2545 9.15266 10.4544 9.27264L14.5714 11.7428C14.7656 11.8593 14.7656 12.1407 14.5714 12.2572L10.4544 14.7274C10.2545 14.8474 10.0001 14.7033 10.0001 14.4701Z" fill="#005680"/>
</svg>
